<?xml version="1.0" standalone="no"?>
<!DOCTYPE svg PUBLIC "-//W3C//DTD SVG 20010904//EN"
 "http://www.w3.org/TR/2001/REC-SVG-20010904/DTD/svg10.dtd">
<svg version="1.0" xmlns="http://www.w3.org/2000/svg"
 width="500.000000pt" height="500.000000pt" viewBox="0 0 500.000000 500.000000"
 preserveAspectRatio="xMidYMid meet">
<metadata>
Created by potrace 1.16, written by Peter Selinger 2001-2019
</metadata>
<g transform="translate(0.000000,500.000000) scale(0.100000,-0.100000)"
fill="#000000" stroke="none">
<path d="M1715 2600 c5 -23 -2 -29 -89 -77 -52 -29 -99 -53 -105 -53 -6 0 -54
25 -107 55 -76 44 -99 53 -110 44 -8 -6 -14 -15 -14 -19 0 -4 30 -37 66 -72
l66 -65 -66 -34 c-36 -19 -66 -39 -66 -45 0 -6 36 -47 81 -91 90 -90 117 -101
208 -83 116 22 221 106 260 206 32 85 30 93 -55 181 -57 59 -74 72 -69 53z"/>
<path d="M2632 2604 c-64 -33 -82 -118 -37 -173 14 -16 36 -33 48 -37 12 -4
35 -17 50 -30 31 -26 84 -32 118 -13 31 16 5 42 -33 34 -35 -8 -37 7 -3 29 13
9 29 33 36 54 29 99 -83 185 -179 136z"/>
<path d="M2091 2568 c-10 -24 -30 -69 -45 -102 -14 -32 -26 -62 -26 -67 0 -5
13 -9 29 -9 21 0 32 6 36 20 5 16 15 20 55 20 39 0 52 -4 60 -20 12 -23 76
-30 67 -7 -3 6 -24 56 -48 110 -42 95 -43 97 -76 97 -30 0 -36 -5 -52 -42z"/>
<path d="M2290 2500 l0 -110 85 0 c84 0 85 0 85 25 0 23 -3 25 -50 25 l-50 0
0 85 0 85 -35 0 -35 0 0 -110z"/>
<path d="M2850 2529 c0 -76 2 -82 29 -110 25 -24 37 -29 78 -29 81 1 103 32
103 144 l0 76 -30 0 -30 0 0 -66 c0 -78 -12 -104 -46 -104 -31 0 -44 31 -44
111 0 59 0 59 -30 59 l-30 0 0 -81z"/>
<path d="M3100 2500 l0 -110 35 0 c32 0 35 2 35 30 0 19 5 30 14 30 8 0 24
-13 36 -30 17 -24 29 -30 56 -30 l35 0 -25 33 c-26 34 -26 34 -6 52 31 28 27
88 -6 114 -22 17 -41 21 -100 21 l-74 0 0 -110z"/>
<path d="M3391 2568 c-10 -24 -30 -69 -45 -102 -14 -32 -26 -62 -26 -67 0 -5
13 -9 29 -9 21 0 32 6 36 20 5 16 15 20 55 20 39 0 52 -4 60 -20 12 -23 76
-30 67 -7 -3 6 -24 56 -48 110 -42 95 -43 97 -76 97 -30 0 -36 -5 -52 -42z"/>
<path d="M3590 2500 l0 -110 30 0 c30 0 30 0 30 58 l1 57 52 -58 c34 -38 60
-57 75 -57 21 0 22 3 22 110 l0 110 -30 0 c-28 0 -29 -1 -32 -55 l-3 -55 -44
55 c-35 44 -50 55 -72 55 l-29 0 0 -110z"/>
</g>
</svg>
